<svg xmlns="http://www.w3.org/2000/svg" viewBox="0 0 256 256"><rect width="256" height="256" fill="#212121"/><path d="M158.59,203.29,91.17,29.51H86.75L21.83,196.93q-8,20.73-21.83,24v5.52H52.49V221q-12.15-.27-18.09-4.14t-5.94-12.44q0-7.72,5.52-22.65l11.33-29.29h66.86L129,197.76q3.31,8.3,3.32,13,0,5.52-4.56,7.59T112.72,221v5.52h64.93V221Q165.22,220.42,158.59,203.29ZM47.52,146.93,79,64.32,110,146.93Z" fill="#f2efe7"/><path d="M249.27,140.85q-7.46,4.41-22.93,9.67a200,200,0,0,0-24.45,9.94,51.11,51.11,0,0,0-16,12.71q-6.78,8-6.77,20.45,0,15.47,8.42,24.17t25.84,8.7a53.63,53.63,0,0,0,24.31-5.38Q248,216,256,203.1v-7.5q-12.76,19.85-30.49,19.84-9.94,0-16-6.35t-6.08-18.79q0-10.77,4.7-17.68a37.08,37.08,0,0,1,11.19-10.91,126.42,126.42,0,0,1,17-8.43q9.12-4.14,13.54-6.63a19.42,19.42,0,0,0,6.17-5.31v-8Q254.41,137.81,249.27,140.85ZM237.39,78.41a78.19,78.19,0,0,0-22.38,3,57.49,57.49,0,0,0-16.85,7.73A39.22,39.22,0,0,0,188.63,98a18.44,18.44,0,0,0-3.18,11,18.21,18.21,0,0,0,3.87,11.75q3.87,4.83,11.6,4.83a16.22,16.22,0,0,0,11.33-4q4.42-4,4.42-10.92a16.53,16.53,0,0,0-3.73-11,17.36,17.36,0,0,0-9.25-5.8q8-9.94,27.35-9.95,12.15,0,18.92,5.94,4.56,4,6,12.56V80.87A63.72,63.72,0,0,0,237.39,78.41Z" fill="#f2efe7"/></svg>