<svg id="logo" xmlns="http://www.w3.org/2000/svg" viewBox="0 0 512 512">
  <defs>
    <style>
      .cls-bg {
        fill: #243665;
      }

      .cls-fg {
        fill: #8bd8bd;
      }
    </style>
  </defs>
  <circle class="cls-bg" cx="256" cy="256" r="256" />
  <!-- <rect class="cls-bg" width="512" height="512" /> -->
  <g>
    <path class="cls-fg"
      d="M303.35,362.69a123.48,123.48,0,0,1-91.55,2.43l-7.23,12.27a137.89,137.89,0,0,0,105.93-2.52Z" />
    <path class="cls-fg"
      d="M318.33,127.42l5.06,19.36A123.39,123.39,0,0,1,364.7,305l5.05,19.31a137.58,137.58,0,0,0-51.42-196.89Z" />
    <path class="cls-fg"
      d="M117,249.25a137,137,0,0,0,27.77,82.87l4.7-18a123.37,123.37,0,0,1,45.13-172.86l4.69-18A137.54,137.54,0,0,0,117,249.25Z" />
    <path class="cls-fg"
      d="M340.89,253.4c-21,9.44-30-24.48-6.83-26.21L288.18,51.5H263.52v74.9c26,11.12,26,74.57,0,85.68v16.18c15.06.49,15.05,23.58,0,24.07l10,39.89L372.44,460.5H395Z" />
    <path class="cls-fg"
      d="M253.05,126.4V51.5H228.39L182.51,227.19c23.2,1.74,14.13,35.65-6.83,26.21L121.6,460.5h22.52l98.93-168.28,10-39.89c-15.06-.49-15.06-23.59,0-24.07V212.08C227,201,227,137.51,253.05,126.4Z" />
  </g>
</svg>