<svg xmlns="http://www.w3.org/2000/svg" viewBox="0 0 256 256"><path d="M102.46,151.19h-51L42.53,172q-3.31,7.67-3.31,11.46a6.65,6.65,0,0,0,2.87,5.29q2.86,2.28,12.38,3v3.6H13v-3.6c5.5-1,9.07-2.23,10.68-3.78q5-4.66,11-18.94L81,60.57h3.4l45.84,109.56q5.53,13.22,10.06,17.14t12.58,4.42v3.6h-52v-3.6q7.88-.37,10.64-2.62a6.78,6.78,0,0,0,2.77-5.44q0-4.27-3.89-13.5ZM99.74,144,77.4,90.78,54.47,144Zm112,36.62Q198,191.21,194.53,192.86a26.23,26.23,0,0,1-11.17,2.43,20,20,0,0,1-15.2-6.32q-6-6.3-6-16.6a21.17,21.17,0,0,1,2.91-11.27q4-6.6,13.84-12.43t32.78-14.18V131q0-13.31-4.22-18.26t-12.29-5q-6.12,0-9.71,3.3a9.94,9.94,0,0,0-3.69,7.57l.19,5.64q0,4.47-2.28,6.89a7.81,7.81,0,0,1-6,2.43,7.57,7.57,0,0,1-5.88-2.52,9.94,9.94,0,0,1-2.28-6.9q0-8.35,8.55-15.35t24-7q11.85,0,19.42,4a18.32,18.32,0,0,1,8.45,9.42q1.75,4.19,1.75,17.1v30.21q0,12.72.49,15.58c.32,1.92.85,3.19,1.6,3.84a3.78,3.78,0,0,0,2.57,1,5.21,5.21,0,0,0,2.72-.68q2-1.26,7.87-7.09v5.44q-10.87,14.56-20.79,14.57a9.45,9.45,0,0,1-7.57-3.3Q211.82,188.59,211.72,180.62Zm0-6.31v-33.9q-14.65,5.84-18.93,8.26-7.68,4.28-11,8.93a17.29,17.29,0,0,0-3.3,10.2,16.68,16.68,0,0,0,4.17,11.61A12.68,12.68,0,0,0,192.3,184Q199.68,184,211.72,174.31ZM243,12.93H13v230H243Z" style="fill:#f1f1f1"/></svg>