<svg id="brand" xmlns="http://www.w3.org/2000/svg" viewBox="0 0 512 512">
  <defs>
    <style>
      .cls-1 {
        fill: #2b4d59;
      }

      .cls-2 {
        fill: #ffdc7c;
      }
    </style>
  </defs>
  <!-- <circle id="bg-circle" class="cls-1" cx="256" cy="256" r="256" /> -->
  <rect id="bg-square" class="cls-1" width="512" height="512" />
  <!-- <rect id="bg-square-round" class="cls-1" width="512" height="512" rx="60" /> -->
  <path id="b-3" class="cls-2"
    d="M303.35,362.69a123.48,123.48,0,0,1-91.55,2.43l-7.23,12.27a137.89,137.89,0,0,0,105.93-2.52Z" />
  <path id="b-2" class="cls-2"
    d="M334,95l6.34,24.23a154.45,154.45,0,0,1,51.71,198.07l6.32,24.17A172.22,172.22,0,0,0,334,95Z" />
  <path id="b-1" class="cls-2"
    d="M82,247.55a171.45,171.45,0,0,0,34.75,103.74l5.88-22.51a154.47,154.47,0,0,1,56.5-216.39L185,89.87A172.14,172.14,0,0,0,82,247.55Z" />
  <path id="a-2" class="cls-2"
    d="M362.27,252.75c-26.26,11.82-37.58-30.65-8.56-32.82L296.28,0H265.42V93.76C298,107.68,298,187.11,265.42,201v20.25c18.85.61,18.83,29.52,0,30.14l12.52,49.93L401.76,512H430Z" />
  <path id="a-1" class="cls-2"
    d="M252.3,93.76V0H221.44L164,219.93c29,2.19,17.67,44.64-8.56,32.82L87.75,512H116L239.78,301.34l12.52-49.93c-18.84-.62-18.84-29.53,0-30.14V201C219.72,187.1,219.74,107.67,252.3,93.76Z" />
</svg>