<svg xmlns="http://www.w3.org/2000/svg" viewBox="0 0 512 512"><rect width="512" height="512" fill="#f2efe7"/><path d="M164.18,191.07,222.35,346.4H105Zm62.33,165.71H100.79L79.5,411.84q-10.41,28.05-10.38,42.6,0,16.11,11.15,23.38t34,7.79V496H227.55V485.61q19.74-1,28.32-4.93t8.56-14.28q0-8.83-6.22-24.42Zm161-116.85q12.45-8.84,31.64-14.54a147.24,147.24,0,0,1,42-5.7q19.79,0,34.82,4.58V16H16V485.51q25.7-6.43,40.64-45.09L178.71,125.61H187L313.78,452.37q12.48,32.2,35.85,33.24V496H397q-18.62-3.54-29.4-14.67Q351.75,465,351.77,436q0-23.34,12.69-38.39a96,96,0,0,1,30.09-23.84q17.35-8.81,45.89-18.67,29.06-9.85,43.05-18.16Q493,331.31,496,323.1v-59q-2.87-15.56-11.22-22.89-12.72-11.15-35.53-11.14-36.3,0-51.34,18.66a32.71,32.71,0,0,1,17.38,10.89q7,8.31,7,20.74,0,13-8.29,20.49t-21.28,7.52q-14.52,0-21.77-9.08t-7.26-22q0-12.45,5.95-20.74T387.54,239.93Zm97,107.86q-8.31,4.68-25.42,12.46-19.73,8.29-31.9,15.8a70,70,0,0,0-21,20.49q-8.81,13-8.81,33.2,0,23.33,11.41,35.25t30.08,11.94q33.19,0,57.12-37.07V338A36.79,36.79,0,0,1,484.53,347.79ZM461.7,487.55A93,93,0,0,1,435.79,496H496V453.94Q481,477.93,461.7,487.55Z" fill="#212121"/></svg>