<svg xmlns="http://www.w3.org/2000/svg" viewBox="0 0 24 24">
  <g>
    <path d="M7.73,6.48l-.91-1.2L6.5,3.45,6.26,1.89l-1.11-.8-1.31.33L3.37,3.18,3.79,5,4.16,6l.75.68L5.47,7l.64.31.49.19-.1.4L3.27,12.47l-1,1.7-.55,1.55.29.55.66-.05.2.21-.64,2,.28,1,.4.35.83.6.7.4L5,20.9l.41.66.75.85.72.39.74.2,1-.09,1.07-.24.82-.47.27-.4.93-.18,1,.1.9.15.81.62,2.12.27,1.18-.59.6-.41.36-.62.41-.37,1.17-.35,1.33-1.08.31-1-.24-.87-.32-.85.12-.4.69.12.23-.41-.65-1.77L19.78,11,17.89,8.38l-.53-.53.22-.35,1.13-.45,1.06-.82L20.39,5l.26-1.27-.09-1.31L20.1,1.37,19.3,1l-1.17.32-.55.83-.15,1.38-.13,1.3-.59,1.36-.4.29-.88,0-1.34-.29L12.34,6l-2.26.13-1.83.51-.52-.14" fill="#ffa401"/>
    <polyline points="10.88 16.1 10.89 16.71 11.33 17.6 11.66 17.92 12.17 18.01 12.74 17.78 13 17.39 13.15 16.62 13.33 16.32 13 15.97 12.25 15.48 11.77 15.48 11.53 15.85 10.88 16.1" fill="#e56467"/>
    <ellipse cx="11.97" cy="12.56" rx="3.29" ry="1.52" fill="#a585db"/>
    <path d="M8.43,6.53s6.42.57,6.91.22S14,6.23,14,6.23l-4-.05-1.64.29" fill="#ffc25f"/>
    <path d="M18,1.52s1.6-.62,1.71.9a12.38,12.38,0,0,0,.51,2.7l.18-1.44.09-.88-.2-.8-.53-.77-1-.18Z" fill="#ffc25f"/>
    <path d="M3.8,1.62s1.66,0,1.72,2.4S7.2,6.11,7.2,6.11l-.45-.79-.17-.9-.1-1.2-.11-.76-.13-.7-.43-.4L4.89,1l-.71.24" fill="#ffc25f"/>
    <path d="M20.16,11.65s1.33,4.41,1.75,4.57.27-.43.27-.43l-.29-1" fill="#ffc25f"/>
    <path d="M16.38,18.2s2.28,1.29,2.32,2.26-.37-1.71-.37-1.71l-.66-.55-.41-.09H16.5" fill="#ffc25f"/>
    <path d="M8.33,18.75s.93.07,1,.78,1.65.8,1.72,1.3.13-.67.13-.67l-.43-.53-.47-.31-.53.3L9.52,19l-.17-.39Z" fill="#ffc25f"/>
    <path d="M5.28,19.65s.94,2.94,3.15,3.1-1.5.13-1.5.13L5.78,22s-.48-.57-.5-.61l-.51-.62-1.11-.42L2.5,19.48" fill="#d88b0f"/>
    <polyline points="12.55 20.67 11.01 21.3 11.01 21.68 12.67 21.67 12.85 21.32 12.48 20.67" fill="#d88b0f"/>
    <polyline points="18.76 19.76 20.6 19.85 19.83 20.71 18.71 20.78 18.81 19.92" fill="#d88b0f"/>
    <path d="M12.65,20.27s2.21,2.26,3.2,2.36-1.28-.11-1.28-.11l-.66-.4-.77-.5-.5-.44-.32-.74" fill="#d88b0f"/>
    <path d="M10.25,16.43s.54,1.82,1.16,1.86S12,18,12,18l-.86-.67-.3-.67-.18-.37-.53,0" fill="#d88b0f"/>
    <path d="M17,5.52s.85,1.24.18,1.25a1.18,1.18,0,0,1-1-.5s.38-.21.38-.21l.29-.29L17,5.4" fill="#d88b0f"/>
    <path d="M3.37,3.18S5,6.3,5.86,6.54s.6.92.6.92l-1.13-.4-.77-.49-.62-.69L3.42,4.61l0-.93Z" fill="#d88b0f"/>
    <path d="M5.17,9.58S2.69,15.11,2.84,16s-.26.19-.26.19l-.46.15-.5-.52.13-.7.6-1.3,1.47-2.38" fill="#d88b0f"/>
    <path d="M2.88,16.17s0,2.8.68,3a9,9,0,0,0,1.82.22l-.73.88s-.87-.4-1-.42-1-.37-1-.37L2.2,19l-.07-.33" fill="#d88b0f"/>
    <line x1="4.52" y1="16.67" x2="4.03" y2="17.65" fill="none" stroke="#f4e977" stroke-linecap="round" stroke-miterlimit="10" stroke-width="0.8"/>
    <line x1="5.64" y1="16.87" x2="5.15" y2="17.85" fill="none" stroke="#f4e977" stroke-linecap="round" stroke-miterlimit="10" stroke-width="0.8"/>
    <line x1="17.9" y1="16.54" x2="18.62" y2="17.98" fill="none" stroke="#f4e977" stroke-linecap="round" stroke-miterlimit="10" stroke-width="0.8"/>
    <line x1="19.12" y1="16.26" x2="19.83" y2="17.71" fill="none" stroke="#f4e977" stroke-linecap="round" stroke-miterlimit="10" stroke-width="0.8"/>
    <path d="M7.94,19.21s.09-.95-1.06-1-2,1.72-1.68,2.95A2.84,2.84,0,0,0,7.72,23c.78,0,2.72-.26,3.4-1.69s-1-2.46-1.41-1.65c0,0,0-1.11-.69-1.19S7.94,19.21,7.94,19.21Z" fill="none" stroke="#232323" stroke-linecap="round" stroke-linejoin="round" stroke-width="0.5"/>
    <path d="M15.89,19s-.09-.94,1.06-1,2,1.72,1.68,2.94a2.83,2.83,0,0,1-2.52,1.82c-.78,0-2.72-.26-3.4-1.69s1-2.46,1.41-1.66c0,0,0-1.11.69-1.18S15.89,19,15.89,19Z" fill="none" stroke="#232323" stroke-linecap="round" stroke-linejoin="round" stroke-width="0.5"/>
    <line x1="11.01" y1="21.63" x2="12.94" y2="21.57" fill="none" stroke="#232323" stroke-linecap="round" stroke-linejoin="round" stroke-width="0.5"/>
    <ellipse cx="7.7" cy="11.52" rx="2.72" ry="2.3" transform="translate(-5.48 15.81) rotate(-74.27)" stroke-width="0.5" stroke="#232323" stroke-linecap="round" stroke-linejoin="round" fill="#fff"/>
    <ellipse cx="16.03" cy="11.4" rx="2.29" ry="2.71" transform="translate(-2.49 4.77) rotate(-15.71)" stroke-width="0.5" stroke="#232323" stroke-linecap="round" stroke-linejoin="round" fill="#fff"/>
    <ellipse cx="8.78" cy="11.19" rx="1.09" ry="1.81" fill="#232323"/>
    <ellipse cx="15" cy="11.19" rx="1.09" ry="1.81" fill="#232323"/>
    <path d="M14,13.51c0,.52-.92.94-2.06.94a4,4,0,0,1-1.33-.22c-.45-.17-.74-.43-.74-.72,0-.52.93-.94,2.07-.94S14,13,14,13.51Z" fill="#232323"/>
    <ellipse cx="11.94" cy="14.37" rx="1.06" ry="0.75" fill="#232323"/>
    <path d="M8.9,15.35a1.12,1.12,0,0,0,.9-.48" fill="none" stroke="#232323" stroke-linecap="round" stroke-linejoin="round" stroke-width="0.5"/>
    <path d="M14.12,14.87a1.91,1.91,0,0,0,1,.34" fill="none" stroke="#232323" stroke-linecap="round" stroke-linejoin="round" stroke-width="0.5"/>
    <path d="M9.45,15.18s.29,1.12.82,1.11S12,15.51,12,15" fill="none" stroke="#232323" stroke-linecap="round" stroke-linejoin="round" stroke-width="0.5"/>
    <path d="M14.63,15.13s-.12,1.17-.71,1.2S12.12,15.75,12,15" fill="none" stroke="#232323" stroke-linecap="round" stroke-linejoin="round" stroke-width="0.5"/>
    <path d="M10.73,16.17S11.15,18.05,12,18s1.3-1.82,1.3-1.82" fill="none" stroke="#232323" stroke-linecap="round" stroke-linejoin="round" stroke-width="0.5"/>
    <path d="M7.5,8.32s.95-.84,1.69-.75" fill="none" stroke="#232323" stroke-linecap="round" stroke-linejoin="round" stroke-width="0.5"/>
    <path d="M15.85,8.18s-.95-.84-1.7-.75" fill="none" stroke="#232323" stroke-linecap="round" stroke-linejoin="round" stroke-width="0.5"/>
    <path d="M11.17,8.74a2.21,2.21,0,0,1-.29,1.08" fill="none" stroke="#232323" stroke-linecap="round" stroke-linejoin="round" stroke-width="0.5"/>
    <path d="M12.64,8.74a2.21,2.21,0,0,0,.29,1.08" fill="none" stroke="#232323" stroke-linecap="round" stroke-linejoin="round" stroke-width="0.5"/>
    <line x1="11.9" y1="8.68" x2="11.9" y2="9.87" fill="none" stroke="#232323" stroke-linecap="round" stroke-linejoin="round" stroke-width="0.5"/>
    <path d="M18.73,20.85a4.59,4.59,0,0,0,2.59-1.37,1.15,1.15,0,0,0,.36-1.08,14.54,14.54,0,0,0-.78-2.34c4.36,1.71-3.77-8.59-3.77-8.59a3.84,3.84,0,0,0,3.1-2.35C20.81,3.87,20.8.9,18.94,1s-1.48,2.35-1.77,3.91S15.8,6.54,15.8,6.54A12.74,12.74,0,0,0,8,6.54s-1.08,0-1.37-1.61S6.75,1.15,4.89,1,3,3.87,3.6,5.12A3.84,3.84,0,0,0,6.7,7.47s-8.14,10.29-3.77,8.59a14.94,14.94,0,0,0-.78,2.34,1.15,1.15,0,0,0,.35,1.08,4.59,4.59,0,0,0,2.6,1.37" fill="none" stroke="#232323" stroke-linecap="round" stroke-linejoin="round" stroke-width="0.5"/>
  </g>
</svg>
