<svg xmlns="http://www.w3.org/2000/svg" id="logo_andre_attamimi" viewBox="0 0 512 512">
  <info name="license" href="http://creativecommons.org/licenses/by-nc/4.0/">
    Creative Commons Attribution-NonCommercial 4.0 International License
  </info>
  <path id="bg" fill="#2B4D59" d="M512,512H0V0H512Z"/>
  <path id="al" fill="#FFDC7C" d="M253.9,94.9V20H229.25L183.37,195.69a13.9,13.9,0,1,1-.27,27.79,14.32,14.32,0,0,1-6.57-1.58L106,492a42.62,42.62,0,0,0,37.7-22.72L253.9,260.72V220.83a12,12,0,0,1,0-24.07V180.58c-11.54-5.66-19.93-22.7-19.93-42.84S242.36,100.56,253.9,94.9Z"/>
  <path id="ar" fill="#FFDC7C" d="M406,492H380.3L258.1,260.72V220.83a12,12,0,0,0,0-24.07V180.58c11.54-5.66,19.93-22.7,19.93-42.84s-8.39-37.18-19.93-42.84V20h24.65l45.88,175.69a13.9,13.9,0,1,0,.27,27.79,14.32,14.32,0,0,0,6.57-1.58Z"/>
  <path id="rl" fill="#FFDC7C" d="M121.21,218.24a133.19,133.19,0,0,0,29.1,83.29l4.27-16.32a120.88,120.88,0,0,1,45.56-174.49l4.26-16.33A133.78,133.78,0,0,0,121.21,218.24Z"/>
  <path id="rr" fill="#FFDC7C" d="M307.85,95.38,312.2,112A121.13,121.13,0,0,1,340.25,133a120.73,120.73,0,0,1,16.58,150l4.33,16.61A133.77,133.77,0,0,0,307.85,95.38Z"/>
  <path id="rb" fill="#FFDC7C" d="M296.85,345.28a134.6,134.6,0,0,1-82,.58l6.23-11.79a122,122,0,0,0,69.56-.55Z"/>
</svg>
